<svg width="256" height="64" viewBox="0 0 256 64" xmlns="http://www.w3.org/2000/svg" role="img" aria-label="¬xø \ą">
  <rect x="0" y="8" width="48" height="48" rx="10" fill="#4F46E5" />
  <path
    d="M14 42V22a2 2 0 0 1 2-2h14l6 6v16a2 2 0 0 1-2 2H16a2 2 0 0 1-2-2Zm14-22v7h7"
    fill="none"
    stroke="#FFFFFF"
    stroke-width="2.4"
    stroke-linecap="round"
    stroke-linejoin="round"
  />
  <path
    d="M23 37l8.8-8.8a1.8 1.8 0 0 1 2.6 0l1.4 1.4a1.8 1.8 0 0 1 0 2.6L27 41l-5 1 1-5Z"
    fill="#FFFFFF"
  />
  <text x="62" y="41" font-family="Pretendard, -apple-system, BlinkMacSystemFont, 'Segoe UI', sans-serif" font-size="24" font-weight="700" fill="#111827">¬xø</text>
</svg>
