<svg width="640" height="420" viewBox="0 0 640 420" fill="none" xmlns="http://www.w3.org/2000/svg">
  <rect width="640" height="420" rx="20" fill="#F8FAFC"/>
  <rect x="24" y="24" width="592" height="52" rx="10" fill="white"/>
  <rect x="40" y="42" width="120" height="14" rx="7" fill="#4F46E5"/>
  <rect x="24" y="92" width="592" height="304" rx="12" fill="white"/>
  <rect x="40" y="112" width="88" height="28" rx="14" fill="#E5E7EB"/>
  <rect x="138" y="112" width="88" height="28" rx="14" fill="#EEF2FF"/>
  <rect x="236" y="112" width="88" height="28" rx="14" fill="#E5E7EB"/>
  <rect x="40" y="154" width="560" height="102" rx="12" fill="#F3F4F6"/>
  <rect x="56" y="170" width="64" height="24" rx="12" fill="#D1D5DB"/>
  <rect x="526" y="174" width="58" height="12" rx="6" fill="#9CA3AF"/>
  <rect x="56" y="206" width="240" height="14" rx="7" fill="#374151"/>
  <rect x="56" y="228" width="170" height="12" rx="6" fill="#9CA3AF"/>
  <rect x="40" y="268" width="560" height="102" rx="12" fill="#F3F4F6"/>
  <rect x="56" y="284" width="64" height="24" rx="12" fill="#DBEAFE"/>
  <rect x="526" y="288" width="58" height="12" rx="6" fill="#9CA3AF"/>
  <rect x="56" y="320" width="240" height="14" rx="7" fill="#374151"/>
  <rect x="56" y="342" width="170" height="12" rx="6" fill="#9CA3AF"/>
</svg>
